<?xml version="1.0" standalone="no"?>
<!DOCTYPE svg PUBLIC "-//W3C//DTD SVG 20010904//EN"
 "http://www.w3.org/TR/2001/REC-SVG-20010904/DTD/svg10.dtd">
<svg version="1.0" xmlns="http://www.w3.org/2000/svg"
 width="1024.000000pt" height="1024.000000pt" viewBox="0 0 1024.000000 1024.000000"
 preserveAspectRatio="xMidYMid meet">
<metadata>
Created by potrace 1.14, written by Peter Selinger 2001-2017
</metadata>
<g transform="translate(0.000000,1024.000000) scale(0.100000,-0.100000)"
fill="#000000" stroke="none">
<path d="M6290 9594 c-254 -215 -622 -368 -960 -400 -94 -9 -242 -9 -340 -1
-328 29 -639 165 -865 378 -35 33 -44 37 -80 34 -43 -5 -130 -16 -155 -20 -8
-1 -49 -8 -90 -15 -41 -7 -113 -21 -160 -32 -47 -11 -96 -22 -110 -24 -24 -5
-90 -23 -235 -66 -310 -90 -679 -243 -1100 -455 -287 -144 -401 -207 -431
-237 -20 -21 -365 -482 -506 -676 -62 -86 -433 -614 -480 -684 -7 -10 -24 -35
-38 -55 -27 -37 -161 -234 -335 -491 -54 -80 -140 -207 -192 -282 l-93 -137
37 -63 c79 -135 226 -345 372 -528 66 -83 267 -325 296 -356 5 -6 35 -40 65
-75 30 -35 90 -104 134 -154 43 -49 88 -101 100 -115 54 -63 240 -286 259
-311 11 -16 24 -29 28 -29 3 0 35 44 70 98 35 53 67 102 72 107 4 6 51 73 104
150 122 177 132 193 164 235 14 19 57 78 95 130 38 52 74 101 81 108 11 11 13
-32 14 -220 0 -128 2 -366 4 -528 2 -162 6 -628 10 -1035 10 -1265 14 -1728
21 -2410 4 -363 7 -733 8 -822 l1 -163 575 -1 c867 -1 3969 -1 4603 0 l557 2
1 82 c0 45 2 127 4 182 10 359 21 928 30 1535 23 1551 29 1865 40 2330 12 503
29 1025 34 1063 3 21 317 -370 520 -647 79 -108 147 -196 151 -196 11 0 46 32
285 254 183 171 304 288 659 639 171 170 389 385 485 479 162 159 173 172 161
192 -11 18 -408 560 -433 591 -4 6 -50 66 -101 135 -194 261 -316 426 -331
445 -8 11 -21 29 -30 40 -9 11 -82 108 -163 215 -220 293 -350 464 -417 550
-33 42 -71 92 -85 110 -46 61 -141 185 -168 219 -47 60 -289 229 -517 363
-110 64 -367 193 -480 241 -33 14 -91 39 -130 56 -91 38 -335 130 -450 169
-150 51 -477 152 -489 152 -6 -1 -40 -26 -76 -56z m-1815 -2058 c81 -7 109
-13 184 -37 138 -44 284 -136 363 -230 l42 -50 60 59 c129 124 261 192 441
228 103 20 298 12 405 -16 128 -34 288 -113 360 -177 141 -127 227 -266 262
-425 18 -83 13 -385 -7 -418 -2 -3 -6 -21 -9 -40 -32 -199 -153 -460 -309
-670 -114 -153 -319 -364 -470 -485 -21 -16 -50 -40 -65 -53 -15 -12 -31 -26
-37 -30 -5 -4 -37 -28 -70 -53 -129 -99 -558 -379 -579 -379 -28 0 -585 394
-700 495 -6 6 -45 39 -86 75 -551 475 -793 971 -736 1511 39 375 334 648 752
697 70 8 91 8 199 -2z"/>
</g>
</svg>
